PathFileType	4	(X/Y/Z)	C:/Users/opensim2020/Desktop/walking_exp_matlab/subject06_walking12_straigt_02.trc	
DataRate	CameraRate	NumFrames	NumMarkers	Units	OrigDataRate	OrigDataStartFrame	OrigNumFrames	
100.00	100.00	9	48	mm	100.00	1493	215	
Frame#	Time	LFHD			RFHD			LBHD			RBHD			C7			T10			CLAV			STRN			RBAK			LSHO			LUPA			LELB			LFRM			LWRA			LWRB			LFIN			RSHO			RUPA			RELB			RFRM			RWRA			RWRB			RFIN			LASI			RASI			LPSI			RPSI			LTHI			LKNE			LTIB			LANK			LHEE			LTOE			RTHI			RKNE			RTIB			RANK			RHEE			RTOE			*39			*40			*41			*42			*43			*44			*45			*46			*47			
		X1	Y1	Z1	X2	Y2	Z2	X3	Y3	Z3	X4	Y4	Z4	X5	Y5	Z5	X6	Y6	Z6	X7	Y7	Z7	X8	Y8	Z8	X9	Y9	Z9	X10	Y10	Z10	X11	Y11	Z11	X12	Y12	Z12	X13	Y13	Z13	X14	Y14	Z14	X15	Y15	Z15	X16	Y16	Z16	X17	Y17	Z17	X18	Y18	Z18	X19	Y19	Z19	X20	Y20	Z20	X21	Y21	Z21	X22	Y22	Z22	X23	Y23	Z23	X24	Y24	Z24	X25	Y25	Z25	X26	Y26	Z26	X27	Y27	Z27	X28	Y28	Z28	X29	Y29	Z29	X30	Y30	Z30	X31	Y31	Z31	X32	Y32	Z32	X33	Y33	Z33	X34	Y34	Z34	X35	Y35	Z35	X36	Y36	Z36	X37	Y37	Z37	X38	Y38	Z38	X39	Y39	Z39	X40	Y40	Z40	X41	Y41	Z41	X42	Y42	Z42	X43	Y43	Z43	X44	Y44	Z44	X45	Y45	Z45	X46	Y46	Z46	X47	Y47	Z47	X48	Y48	Z48	

54	0.530	1496.40833	756.97449	1682.44568	1366.38049	770.65088	1667.37195	1512.79028	886.58887	1621.21790	1385.22131	898.80353	1612.14575	1459.06677	883.40143	1457.62488	1449.05225	891.97253	1128.87488	1447.70117	766.05707	1390.39795	1452.28979	712.36407	1217.12451	1388.77368	947.64874	1281.15576	1613.68323	815.37115	1419.18103	1692.41797	784.63947	1221.23303	1709.61060	768.16693	1110.82922	1734.35571	708.23853	973.67505	1690.88232	626.85144	873.97992	1734.82690	680.54059	857.65466	1736.60657	619.01349	791.16534	1292.16211	832.66089	1416.15271	1212.39478	874.44464	1215.29346	1201.48499	864.72162	1093.78943	1182.11646	859.15375	973.75244	1204.70703	809.12225	828.01477	1170.45923	866.38019	836.13220	1163.45850	838.32208	756.50507	1546.04724	712.04718	972.45746	1327.76477	723.49249	979.69897	1522.94434	871.35638	1000.66003	1355.17871	871.77014	1000.11749	1604.02844	794.57642	660.08124	1582.60095	810.53076	496.72141	1574.54785	863.35480	244.16844	1527.13416	875.68805	72.77512	1482.40662	916.44421	59.54687	1522.91699	730.68268	39.87445	1265.65955	712.30469	647.81415	1285.12610	669.82141	528.62811	1290.37085	818.79810	318.63544	1332.59253	931.20020	171.12784	1382.02795	973.59760	165.26282	1313.97046	822.67413	65.11916	1447.82446	865.26880	1714.29382																								 
55	0.540	1496.82776	745.27173	1682.20691	1366.86865	759.04437	1667.18933	1513.65125	875.44373	1621.44507	1385.68384	887.35626	1612.28992	1459.59326	872.18597	1457.72852	1449.64319	881.77893	1129.10522	1448.19568	754.96246	1390.21863	1453.02771	701.66632	1216.83264	1389.64685	936.85516	1281.49976	1614.04688	804.19153	1419.36438	1693.29187	771.04089	1222.14600	1710.94324	752.44324	1112.01160	1735.76172	688.25885	976.87390	1692.31299	603.00220	880.44189	1735.69092	656.33118	861.91650	1737.77783	592.73419	797.78473	1292.69409	821.71002	1416.15967	1213.34900	866.10168	1215.82190	1202.47083	858.17963	1094.16748	1183.11877	854.77417	974.07648	1205.35327	807.15442	827.48828	1171.63342	864.52191	836.41052	1164.90845	838.32727	756.25201	1546.99841	703.08002	971.69379	1328.76660	712.97925	980.05371	1522.64697	862.04211	1000.57770	1354.84631	861.22522	1000.77460	1603.68164	787.86206	659.58118	1582.12122	805.02466	496.26212	1573.88269	860.88007	244.39230	1526.56238	875.30255	73.02966	1482.14844	916.14545	60.01691	1523.04407	730.52600	39.83520	1266.19897	697.94287	649.52686	1286.50513	654.73096	530.94305	1290.93799	796.03674	314.11755	1333.40051	901.27814	161.48460	1382.71423	943.70959	153.40260	1315.29199	787.56897	61.68196	1448.29675	853.50330	1714.32080																								 
56	0.550	1497.32764	733.64575	1681.80884	1367.27490	747.44037	1666.83704	1514.03516	863.88812	1621.27844	1386.09668	875.82513	1612.18872	1460.01843	860.92346	1457.55884	1450.07788	871.51782	1129.06970	1448.61816	743.90906	1389.86230	1453.66919	691.25104	1216.28137	1390.52881	925.99731	1281.58057	1614.40430	792.98309	1419.32678	1694.08069	757.71033	1222.79626	1712.18799	737.10425	1113.01282	1736.86816	668.56897	979.91974	1693.48840	579.55939	887.18341	1736.20105	632.45154	866.10040	1738.38367	566.43304	804.57831	1293.13452	810.81256	1415.88501	1214.16687	857.70819	1216.19531	1203.32996	851.66333	1094.45813	1184.01782	850.30566	974.28369	1205.89026	804.80365	826.88794	1172.69226	862.48474	836.83496	1165.88550	837.48035	756.07715	1547.87854	694.15076	970.70959	1330.07324	703.01331	980.03412	1522.40906	852.69849	1000.34235	1354.58032	850.71448	1001.09760	1603.22266	780.98853	658.80487	1581.66406	799.47449	495.63846	1573.28833	858.39270	244.40927	1526.06592	874.86432	73.17626	1481.68469	915.96405	60.52154	1523.36230	730.76025	39.91946	1266.63696	684.06683	651.02802	1287.54260	640.27258	532.98798	1291.59619	773.19983	309.55194	1333.82690	870.91559	151.81879	1383.29883	913.03687	141.44763	1316.52173	751.55688	58.51487	1448.70044	841.75537	1714.12512																								 
57	0.560	1497.61902	721.84027	1681.18298	1367.65552	735.70386	1666.28027	1513.94702	851.87018	1620.78125	1386.46533	864.30823	1611.88184	1460.40125	849.64478	1457.21558	1450.44556	861.22015	1128.83032	1449.02905	732.73682	1389.30469	1454.25671	680.71069	1215.52405	1391.25659	915.13849	1281.38879	1614.71411	781.84503	1419.09924	1694.79492	744.56592	1223.22705	1713.36462	722.13501	1113.80188	1737.91174	649.38123	982.97278	1694.24353	556.45068	893.99207	1736.50195	608.96259	870.49243	1738.69470	540.57751	811.59705	1293.57214	799.77393	1415.40369	1214.90637	849.15265	1216.31555	1204.07629	845.07452	1094.54529	1184.89429	845.53741	974.36377	1206.85034	802.56195	826.25037	1173.70081	860.13519	837.02032	1167.05383	836.38251	755.79858	1548.61694	685.08313	969.53406	1330.88965	692.54816	979.94122	1522.15149	843.33527	999.81775	1354.34155	840.14429	1001.06708	1602.82092	774.09351	657.95416	1581.24292	793.81042	494.88763	1572.77576	855.80359	244.37521	1525.74561	874.42773	73.42262	1481.12646	915.65924	60.79752	1523.07727	730.13452	39.70655	1266.81787	670.69006	652.29907	1288.50659	626.34406	534.47827	1291.91211	750.28894	304.75409	1334.38684	839.99884	142.30829	1383.72046	881.85968	129.91887	1317.58521	715.64618	55.65540	1449.09741	829.97803	1713.72876																								 
58	0.570	1497.96814	710.13403	1680.38977	1367.93250	723.94952	1665.53967	1514.63281	840.64362	1620.37939	1386.70056	852.63062	1611.37036	1460.75110	838.25409	1456.70361	1450.72876	850.91260	1128.38843	1449.35510	721.56403	1388.50745	1454.86731	669.99042	1214.60425	1392.00049	904.29132	1281.03076	1614.96045	770.54089	1418.61218	1695.41565	731.66315	1223.45166	1714.30469	707.39160	1114.30103	1738.67554	630.46802	985.85785	1695.09497	534.26483	900.87354	1735.92407	585.26855	874.47919	1738.62805	515.31000	818.75702	1293.83728	788.69678	1414.74585	1215.57336	840.65039	1216.26587	1204.61865	838.59827	1094.44397	1185.82983	840.91534	974.23328	1207.45483	799.89093	825.63696	1174.63232	857.47241	837.16473	1167.99597	835.12836	755.42084	1549.22729	675.88641	968.13953	1331.35999	682.02893	979.61530	1521.93262	833.97382	999.12415	1354.08362	830.05145	1000.93225	1602.35046	767.07703	656.95587	1580.75989	787.98529	494.01752	1571.96680	852.69812	244.17360	1525.30774	873.98456	73.55864	1480.62366	915.42474	61.19594	1523.06189	730.05524	39.67528	1266.72534	657.59674	653.34387	1289.02332	613.07367	535.61072	1292.24084	727.63226	299.88782	1334.75903	808.51733	132.90431	1384.00940	849.86169	118.41811	1318.57056	679.30725	53.28803	1449.34790	818.18372	1713.11267																								 
59	0.580	1498.17627	698.40991	1679.53662	1368.08215	712.29541	1664.60388	1514.84241	828.96777	1619.63135	1386.94360	841.06641	1610.63037	1460.96619	826.83331	1456.01855	1450.96338	840.65448	1127.75195	1449.65125	710.33899	1387.52649	1455.31995	659.47864	1213.38574	1392.51538	893.33466	1280.43018	1615.21790	759.33978	1417.94128	1696.03540	718.86346	1223.27234	1715.20691	692.91577	1114.55127	1739.49097	611.99286	988.69482	1695.49426	512.38556	907.77228	1736.11304	563.06055	879.34784	1738.41382	490.43039	826.08118	1294.12878	777.52869	1413.83545	1216.19775	832.08533	1216.05493	1205.36707	831.38129	1094.20544	1186.33704	835.64380	974.04150	1207.86670	796.84320	824.75494	1175.54749	854.46277	837.15887	1168.88586	833.42261	755.04620	1549.66309	666.65033	966.56079	1331.87000	671.79480	978.98395	1521.70459	824.53137	998.18835	1353.88782	819.95154	1000.49152	1602.13000	760.19379	656.03412	1580.24219	781.93597	493.06204	1571.73889	849.82159	244.05188	1524.90820	873.46277	73.71651	1480.15369	915.07648	61.58818	1522.88684	729.81635	39.48005	1266.37415	644.94098	653.98834	1289.28564	600.32556	536.42578	1292.36182	704.95801	295.06738	1334.93445	776.60596	123.77477	1383.86829	816.97571	107.11633	1320.26489	643.14368	51.05202	1449.54431	806.39331	1712.35461																								 
60	0.590	1498.12732	686.54919	1678.33398	1368.17175	700.56378	1663.45825	1514.56042	816.78577	1618.52283	1387.04993	829.33179	1609.61304	1461.30029	815.34900	1455.22754	1451.05579	830.37000	1126.96582	1449.90063	699.09912	1386.34290	1455.76135	648.74878	1212.07336	1393.05627	882.43628	1279.77759	1615.40698	748.03833	1417.07568	1696.53235	706.26593	1222.90137	1715.93933	678.60455	1114.61426	1740.23926	593.58710	991.34686	1695.62109	491.07797	914.72681	1735.66260	540.73511	883.89685	1737.94226	466.21927	833.62805	1294.32178	766.30432	1412.78418	1216.83337	823.31628	1215.67419	1206.10620	824.46240	1093.72559	1187.11426	830.36145	973.67102	1208.31616	793.51324	823.97766	1176.24744	851.19055	837.06500	1169.65369	831.28381	754.68127	1550.07129	657.35443	964.93555	1331.93921	661.15240	978.17145	1521.35193	815.02728	997.02643	1354.10095	810.90637	999.97736	1601.69922	752.83789	654.90668	1579.67139	775.83533	492.09778	1570.84473	846.29584	243.86693	1524.54211	872.86493	73.89544	1479.81018	914.75525	62.02651	1522.90234	729.79114	39.61892	1265.77344	632.74890	654.17371	1289.46338	588.15173	536.60059	1292.35205	682.37262	290.32574	1334.86646	744.10144	115.14084	1384.02502	784.30731	96.95899	1321.53186	606.79272	49.27493	1449.67896	794.59094	1711.37292																								 
61	0.600	1498.21753	674.72198	1677.17114	1367.99756	688.45154	1662.12268	1514.67163	805.00543	1617.42346	1387.16992	817.60901	1608.39905	1461.34851	803.76996	1454.22144	1451.03467	820.01813	1126.02039	1450.08411	687.84204	1385.00659	1456.02881	638.26587	1210.46191	1393.41736	871.48285	1278.99854	1615.51038	736.66168	1415.97131	1696.89722	693.78180	1222.35730	1716.57104	664.52771	1114.47192	1739.69836	575.43463	993.38806	1695.50110	470.37265	921.59479	1734.93835	518.96057	888.37299	1737.17310	442.48813	841.19049	1294.47009	754.98303	1411.59119	1217.37451	814.45142	1215.15479	1206.39990	816.91663	1093.30859	1187.46533	824.60077	973.31506	1208.76270	789.97089	823.03522	1176.86108	847.58783	836.99542	1170.26282	828.96057	754.22595	1550.23657	647.89569	963.30310	1332.07458	650.93732	977.10272	1520.96655	805.44922	995.78992	1353.04980	799.55231	998.69598	1601.19336	745.22351	653.70361	1579.04590	769.70581	491.10162	1570.38965	843.01013	243.71828	1524.17651	872.25873	74.10302	1479.44592	914.43878	62.49324	1522.79163	729.76868	39.68469	1265.46667	621.51215	653.99121	1289.45911	576.87421	536.28290	1292.37830	659.98120	285.77145	1334.57117	711.32385	107.07535	1383.48547	750.07574	86.69854	1322.50281	570.23590	47.75478	1449.66284	782.74677	1710.17065																								 
62	0.610	1498.06360	662.86456	1675.76746	1367.96252	676.83276	1660.64441	1515.09949	793.57428	1616.31836	1387.23157	805.96796	1607.06409	1461.47253	792.19812	1453.11572	1450.92090	809.68610	1124.94995	1450.21155	676.48688	1383.50232	1456.24243	627.45386	1208.77100	1393.71313	860.54840	1278.12244	1615.54785	725.20111	1414.71594	1697.09937	681.37646	1221.55603	1717.03394	650.71411	1114.07629	1739.69592	558.24915	996.00214	1695.17261	450.29245	928.39984	1734.11853	497.64847	892.91180	1736.25366	419.45306	848.76544	1294.51416	743.65063	1410.25659	1217.85852	805.34796	1214.50842	1206.78088	809.35724	1092.68958	1187.91052	818.62604	972.81836	1208.88538	785.83484	821.99902	1177.46240	843.54041	836.77917	1170.80530	826.02258	753.72974	1550.24304	638.23730	961.53308	1332.03333	640.85461	975.83942	1520.55737	795.76819	994.38562	1352.81067	789.86084	997.52606	1600.62976	737.45734	652.47363	1578.42700	763.55634	490.09015	1569.71790	839.72028	243.53473	1523.78882	871.72302	74.33275	1479.12122	914.36169	63.16880	1522.58716	729.60858	39.66927	1265.06580	610.89349	653.14563	1289.49634	565.95264	535.56775	1292.39343	637.80707	281.50012	1334.14526	678.30853	99.78194	1383.08960	715.87866	77.70824	1323.18604	534.41626	46.81201	1449.60229	770.87152	1708.81323																								 
